<svg width="226" height="45" xmlns="http://www.w3.org/2000/svg" xml:space="preserve" version="1.1">

 <g>
  <title>Layer 1</title>
  <path id="svg_1" fill="#C7910E" clip-rule="evenodd" fill-rule="evenodd" d="m191.46273,15.3c-1.1,0 -2.3,0.2 -2.4,1.1c-0.1,1.1 1.1,1.5 2.2,1.3c1.9,-0.4 1.1,-2.6 1.1,-5.4l3.6,0.1l0.3,3.1c-0.7,0 -1.4,0 -1.9,0.3c-0.5,0.3 -0.7,1.1 -0.3,1.6c0.7,0.8 2.6,0.7 3.1,-0.3c0.4,-0.7 0.1,-2.8 0,-3.8c0,-0.5 -0.2,-3.9 -0.4,-4c-0.2,-0.2 -5.6,-0.2 -5.7,-0.2l0.4,6.2zm4.6,-4c-0.8,0 -1.7,0 -2.5,0c-1.1,0 -1.3,0.1 -1.1,-1.2c0.5,0 3.2,0 3.5,0.1c0.1,0.1 0.1,0.9 0.1,1.1zm-8.9,-1c-0.7,0 -1.2,-0.2 -1.9,0.1c-0.4,0.2 -0.9,0.7 -0.7,1.3c0.3,1 1.9,1.4 2.9,0.8c1,-0.6 0.7,-2.1 0.7,-3.5c0,-1.4 -0.1,-2.8 -0.1,-4.2c0.8,0 1.7,0.4 2.2,0.8c1,0.8 0,1.3 -0.2,2c0.5,-0.1 1.1,-0.7 1.2,-1.2c0.5,-1.7 -2.6,-3 -4.2,-2.9c-0.1,0.8 0,2.5 0,3.3c0,1.2 0.1,2.4 0.1,3.5zm33.5,5.3c0.5,0.2 0.8,-0.1 1.5,-0.7c1.2,-0.9 2.6,-2.4 3.4,-3.8c0.5,-0.9 1,-2.5 0.7,-3.8c-0.3,-1.2 -1.5,-2.3 -2.5,-2.3c-0.1,0.8 1.4,0.3 2,2.3c0.8,2.8 -1.9,5.6 -3.8,7.2c-0.4,0.4 -1,0.7 -1.3,1.1zm-7.2,-3.2l0.3,0c0.3,-0.5 -0.9,-3.6 0.6,-6.8c0.4,-0.9 1,-1.7 1.8,-2.1c1.9,-1.1 2.7,0.3 3.2,-0.3c-0.1,-0.1 0.1,-0.1 -0.6,-0.4c-2.1,-0.7 -3.8,0.7 -4.7,2.4c-0.5,1 -0.8,2 -0.8,3.3c-0.2,0.9 -0.1,3.3 0.2,3.9zm-71.5,14.2c0.5,2 3.9,1.3 3.3,-0.9c-0.5,-1.8 -3.9,-1.3 -3.3,0.9zm1.2,-1.6c0.7,-0.3 1.5,0.1 1.7,0.7c0.3,0.8 -0.1,1.5 -0.7,1.7c-1.7,0.6 -2.7,-1.7 -1,-2.4zm78.8,-19.8c0.3,0.2 1.6,0.6 1.4,-0.3c-0.3,-0.2 -0.8,-0.4 -1.3,-0.3c-0.1,0.2 -0.1,0.2 -0.1,0.6zm-1.6,-0.9c1.1,-0.6 -0.4,-1.2 -0.9,-1.1c-0.3,0.7 0.7,1.1 0.9,1.1zm-200.1,25.5c3.1,0.3 5.6,-0.2 8.5,-1.3c-0.8,2.7 -2,5.1 -4.2,7c-1.9,1.7 -4.3,3 -6.9,3.5l-0.1,-1.2c0.5,-0.1 1.2,-0.3 1.7,-0.5c1.8,-0.7 3.4,-1.7 4.7,-3c1.1,-1.1 2,-2.4 2.7,-3.8c-2,0.6 -3.9,0.6 -5.7,0.5c-0.2,-0.4 -0.4,-0.9 -0.7,-1.2zm-3.7,-2.5c4.3,0.5 8.4,0.7 12.4,-1.2l0,0l112.1,-0.1c0,-0.8 0.4,-1.5 1,-2.1c0.6,-0.5 1.7,-0.8 2.7,-0.5c1,0.4 1.3,0.9 1.8,1.7c2,0.1 6.9,-1.5 7.6,-2.5c-0.7,-1.7 -9,-5.4 -9.3,-11.7c-0.2,-5.4 4.2,-8.2 8.2,-6.9c1.7,0.6 2,1.3 3.1,2.1c0.8,-0.2 3.6,-4.3 7.8,-2.8c2.6,0.9 4.3,3.6 4.1,7.1c-0.3,5 -5.5,8.7 -9.3,11.6c-0.2,0.2 -0.7,0.4 -0.8,0.6c1,0.9 3.9,2.1 5.5,2.3c2.8,0.5 4.6,-0.6 6,-1.9c1.2,-1.2 1.5,-4 4,-3.9c2.6,0.1 2.6,3.5 4.1,3.8c1,-1.3 0.9,-9.2 0.9,-11.4c0,-3.2 0,-8.6 1.6,-10.9c1.8,-0.2 1.8,1 2,2.5c0.3,4.1 0.5,9.1 0.6,13.2c0.1,4.1 0.3,12.4 0.9,16.7c0,0 0,0.2 0,0.2l0.1,0.3c0,-2.5 0,-5.2 0.9,-7.4c0.4,-1.1 1,-1.8 1.9,-2.3c1.1,-0.5 2.5,-0.3 3.6,-0.9c2.3,-1 1.5,-4 4.3,-4.2c3,-0.3 2.7,3.9 4.5,4.1c1,-1.7 0.7,-9.3 0.8,-11.9c0.1,-2.2 0,-10.4 2,-10.9c1.1,0 1.7,6.5 1.7,7.1c0.5,5.6 0.7,10.9 1.1,16.5c0.2,2.8 0.3,5.6 0.5,8.3c0,0 0,-0.1 0,-0.1c0,0 0,0 0,-0.1c0,-0.1 0,-0.1 0.1,-0.2l0.3,-3.1c0.6,-5.3 1.6,-5.3 5.5,-6.3c1.1,-0.3 2.1,-0.7 2.7,-1.3c1.7,-1.8 -1.9,-1.2 -1,-5.7c0.1,-0.5 0.3,-1 0.4,-1.5c0.2,-0.8 -0.1,-1.1 0.9,-1.1c1.1,1.3 -2.1,4.9 1.6,6.5c2.2,0.9 3.4,-0.8 4.3,-2.3c0.4,-0.7 0.4,-0.9 1.5,-1c0,1.1 -1.1,2.8 -1.7,3.4c-1.8,2 -3.1,0.9 -4,1.4c-0.3,0.1 -1.1,2.2 -4.2,2.9c-2.4,0.6 -3.8,0.5 -4.4,2.8c-0.7,2.9 -1.1,7.2 -2,10c-0.2,0.5 -0.2,1 -0.8,1.1c-0.8,-1.2 -0.9,-6 -1,-7.8c-0.1,-2.8 -0.4,-5.6 -0.5,-8.4c-0.2,-5.6 -0.6,-11.2 -1.2,-16.8c-0.7,1 -0.7,11.8 -0.6,13.9c0,2 0.2,5.2 -1.3,6.2c-1.1,0.7 -2.2,-0.3 -2.6,-0.8c-0.9,-1.2 -2,-5 -3.6,-2.4c-0.5,0.9 -0.9,1.7 -1.5,2.3c-1.8,1.6 -4.1,0.8 -5.5,2.3c-1.2,1.2 -1.1,4.2 -1.1,6.2c0,1.5 -0.4,5.5 -1.8,5.7c-1.4,-0.5 -1.5,-5.9 -1.6,-7.7c-0.2,-2.9 -0.3,-5.9 -0.4,-8.8l-0.6,-13.4c0,-0.8 -0.2,-3.7 -0.5,-4.2c-0.3,2.6 -0.4,5.2 -0.5,7.8c-0.1,3.1 0.3,9 -0.7,11.8c-0.1,0.4 -0.5,1.2 -0.8,1.3c-2.4,0.5 -3.1,-2.1 -3.6,-2.9c-0.9,-1.4 -1.8,-1 -2.5,0.2c-1.1,1.8 -2.1,3.4 -4.4,4.3c-2.5,1 -5.3,0.3 -7.5,-0.5c-3.9,-1.4 -3,-2.4 -6.3,-0.9c-2.1,0.9 -4.5,1.7 -7.1,1.9c-0.8,1 -0.7,2 -2.6,2.1c0.2,-0.4 0.7,-0.5 1.1,-1c1.7,-1.8 -0.3,-3.4 -1.1,-3.7c-1.2,-0.4 -3.3,0.6 -2.5,3c0.3,0.7 0.6,0.8 0.8,1.3c-0.5,-0.1 -0.9,-0.4 -1.1,-0.8l-46.9,0l-65.7,0c-3.4,1.4 -6.7,1.5 -9.5,1.3c-0.8,-0.6 -1.7,-0.9 -2.7,-1l-0.2,-0.5zm1.3,-2c3.2,0.4 7.2,0.5 11,-1.3c0.1,0.4 0.1,0.9 0.1,1.3c-4.5,1.9 -8.9,1.5 -12.2,1.1c0.4,-0.3 0.8,-0.7 1.1,-1.1zm1.4,-2c3.1,0.2 6.4,0 9.3,-1.4c0.1,0.4 0.2,0.8 0.3,1.2c-3.2,1.4 -6.8,1.6 -10.3,1.3c0.2,-0.3 0.5,-0.7 0.7,-1.1zm-4.4,15.9c-1,0 -2.1,0 -3.1,-0.2c-1,-0.2 -2,-0.5 -2.9,-0.8c-4.2,-1.7 -7.4,-5.2 -8.5,-9.6c-1,-4.1 0.1,-8.5 2.9,-11.8c3.7,-4.2 9.6,-5.9 15,-4.5c4.3,1.1 7.9,4.1 9.6,8.2l0.2,0.5l-0.6,0.2c-2.6,1.1 -5.2,1.4 -8,1.2c0.1,-0.4 0.2,-0.8 0.3,-1.2c2.2,0.2 4.5,-0.1 6.6,-0.9c-1.6,-3.4 -4.8,-5.9 -8.5,-6.9c-4.9,-1.3 -10.3,0.3 -13.7,4.1c-2.6,3 -3.6,6.9 -2.7,10.7c0.9,4 3.9,7.3 7.8,8.8c0.8,0.3 1.7,0.6 2.6,0.8c0.9,0.2 1.9,0.2 2.8,0.2l0.2,1.2zm1.5,-2.9l-0.5,-5.3c0.1,0 0.2,0 0.4,0c2.5,0 3.3,2.6 2,4.2c-0.5,0.7 -1.1,0.8 -1.9,1.1zm-4.6,-1.5c-0.7,-0.9 -0.8,-1.9 -0.6,-2.9c0.4,-2.2 2.1,-3.7 3.8,-5.1l0.1,1l0.1,1.2c-2.8,0.8 -4.4,5.1 -1.1,6.5c-1.3,-1.3 -1.1,-3.5 1.3,-4.2l0.4,5.2c-1.6,0 -3.2,-0.6 -4,-1.7zm3.6,-14.7c0.3,-1.2 0.9,-2.1 1.4,-2.6c0.6,-0.6 1.3,-0.8 1.4,-0.8c0.2,0 0.3,0.3 0.4,0.9c0.1,0.5 0.1,1.3 -0.2,2.4c-0.5,1.4 -1.2,2.3 -1.9,2.9c-0.7,0.6 -1.2,1 -1.2,1c-0.1,-1.3 -0.3,-2.5 0.1,-3.8zm4.2,10.4c-0.8,-1.1 -2.2,-1.9 -3.9,-1.7l-0.1,-1.3l-0.1,-1.2c1.2,-0.9 2.1,-1.9 2.8,-3.2c0.7,-1.3 1,-2.9 0.9,-5.2c-0.1,-1.5 -0.3,-2.3 -0.6,-2.8c-0.3,-0.5 -0.6,-0.6 -0.8,-0.7c-0.2,0 -1.4,0.4 -2.3,1.8c-0.9,1.4 -1.5,4.2 -0.8,8.1c-1.4,1.1 -3.6,3 -4.6,4.7c-1.2,2.2 -0.9,4.6 0.5,6.3c1.1,1.2 2.8,1.9 5,1.9l0.4,4.1c0,0.5 0.1,1.8 -1.2,2.3c-0.2,0.1 -0.3,0 -0.1,-0.2c0.5,-0.6 0.6,-1.5 0,-2c-0.4,-0.4 -1,-0.5 -1.5,-0.4c-2.2,0.7 -1.4,3.1 0.4,3.5c1.5,0.3 3.2,-0.9 3.1,-2.7l-0.4,-4.7c1,-0.2 2,-0.8 2.5,-1.3c0.4,-0.4 0.8,-0.9 1,-1.6c0.7,-1.2 0.6,-2.6 -0.2,-3.7zm137.2,-20.9c0.3,-0.2 0.4,-0.3 0.6,-0.8c0.4,-1.2 0.3,-1.5 1.3,-2.5c0.8,-0.8 1.9,-1.7 3.7,-1.6c2.9,0.1 4.7,2.8 4.3,5.9c-0.6,3.9 -5,7.8 -8.3,9.9c-1.9,1.2 -2,1.5 -3.5,0.4c-1.4,-1 -3,-2.4 -4.4,-3.4c-2.7,-2 -5.9,-6.8 -3.1,-10.3c0.6,-0.7 1.9,-1.8 3.3,-1.9c1.7,-0.2 3,0.8 3.9,1.4c1.2,0.8 1.5,2.6 2.2,2.9z" class="st0"/>
 </g>
</svg>